<svg width="141" height="26" viewBox="0 0 141 26" fill="none" xmlns="http://www.w3.org/2000/svg">
    <title>Wellhub Logo</title>
    <path
        d="M128.484 14.3646L128.499 14.3598C128.638 14.3068 128.795 14.3309 128.914 14.42C132.094 16.822 138.458 13.8924 140.294 12.0132C140.856 11.4374 141.097 10.6568 140.961 9.86898C140.821 9.07876 140.326 8.42104 139.6 8.06206L139.198 7.86692L139.212 7.90546C138.174 7.58022 137.014 8.01629 136.231 9.05707C136.091 9.24017 135.937 9.45219 135.769 9.68347C134.682 11.1772 132.863 13.6804 131.195 13.9382C130.724 14.0104 130.301 13.9044 129.898 13.6129C129.74 13.4973 129.674 13.2901 129.737 13.1094L129.742 13.0949C129.796 12.9407 129.913 12.8275 130.052 12.7914C133.893 11.7771 135.52 5.06739 135.178 2.50639C135.073 1.71375 134.604 1.03917 133.896 0.656101C133.183 0.270625 132.355 0.244124 131.62 0.583825L131.569 0.607917C130.438 1.1259 129.93 2.41243 130.301 3.80978C130.36 4.03143 130.433 4.28199 130.511 4.55423C131.178 6.88636 132.292 10.7893 130.077 11.5097C129.859 11.5795 129.625 11.4976 129.5 11.3169L129.486 11.2952C129.395 11.1651 129.381 10.9965 129.442 10.8495C130.951 7.25015 126.682 1.85349 124.477 0.540459C123.786 0.128481 122.963 0.0682502 122.216 0.376631C121.464 0.685012 120.924 1.31141 120.734 2.092L120.721 2.145C120.428 3.34239 121.129 4.53736 122.465 5.11799C122.677 5.21195 122.924 5.31314 123.19 5.42396C125.469 6.37079 129.278 7.95606 128.399 10.1388C128.323 10.3267 128.125 10.4448 127.903 10.4327C127.735 10.4231 127.583 10.3316 127.508 10.1918C125.618 6.75867 118.672 6.69121 116.245 7.58022C115.488 7.85728 114.929 8.45718 114.707 9.22572C114.484 9.99908 114.641 10.8038 115.141 11.4422L115.173 11.4832C115.937 12.4565 117.32 12.6613 118.614 11.9915C118.819 11.8855 119.051 11.7602 119.305 11.6229C121.488 10.4472 125.144 8.47886 126.301 10.5701C126.394 10.7363 126.367 10.9483 126.233 11.0953L126.218 11.1121C126.104 11.2326 125.937 11.288 125.774 11.2591C121.884 10.5725 117.491 15.8969 116.68 18.3302C116.426 19.0891 116.553 19.8986 117.024 20.5491C117.495 21.202 118.233 21.5802 119.044 21.5923H119.095C119.095 21.5923 119.119 21.5923 119.129 21.5923C120.36 21.5923 121.368 20.6575 121.642 19.2529C121.686 19.0265 121.732 18.7687 121.784 18.4868C122.111 16.651 122.658 13.5768 124.077 12.6637C124.489 12.3987 124.944 12.3288 125.466 12.4565C125.615 12.4926 125.732 12.6227 125.754 12.7769L125.762 12.8179C125.784 12.9576 125.727 13.0998 125.61 13.1961C122.533 15.7258 124.006 22.5102 125.454 24.6954C125.896 25.3627 126.611 25.7699 127.42 25.8132C127.466 25.8157 127.513 25.8181 127.561 25.8181C128.321 25.8181 129.024 25.4904 129.515 24.8953L129.542 24.8616C130.333 23.91 130.228 22.5319 129.278 21.4357C129.127 21.2622 128.953 21.0671 128.763 20.8526C127.513 19.4553 125.422 17.1135 125.583 15.4463C125.63 14.9597 125.859 14.567 126.287 14.2417C126.416 14.143 126.602 14.1333 126.748 14.2176C126.878 14.2923 126.958 14.4321 126.963 14.5887C127.039 18.5494 133.329 21.6405 135.962 21.8862C136.765 21.9609 137.535 21.6621 138.072 21.0671C138.614 20.4672 138.826 19.6721 138.655 18.8867L138.643 18.8313C138.382 17.6267 137.237 16.8533 135.769 16.8967C135.537 16.9039 135.273 16.9184 134.985 16.9328C133.105 17.0244 129.957 17.181 128.736 16.0221C128.379 15.6849 128.211 15.2656 128.216 14.738C128.216 14.5718 128.326 14.4248 128.489 14.367L128.484 14.3646Z"
        fill="#F2496B"></path>
    <path
        d="M0 9.44971H4.71225L7.05271 15.33C7.35031 16.0795 8.4109 16.0818 8.71297 15.3344L11.0937 9.44971H15.2734L17.8578 15.4553C18.1733 16.1892 19.2204 16.1735 19.5136 15.4284L21.8585 9.44971H26.4186L20.921 21.9374H16.6652L13.9264 15.6074C13.6132 14.8847 12.5861 14.8892 12.2796 15.6164L9.62364 21.9396H5.44393L0 9.44971Z"
        fill="#F2496B"></path>
    <path
        d="M25.6108 15.7303C25.6108 11.8303 29.1327 9.09375 34.4267 9.09375C39.7207 9.09375 42.9383 11.9556 42.9383 15.7817V16.5157H31.1599C30.6721 16.5157 30.3432 17.0213 30.5468 17.4644C31.1129 18.7017 32.5539 19.4021 34.6281 19.4021C36.2996 19.4021 37.5414 18.8964 38.2507 18.1871C38.4028 18.0349 38.5304 17.8828 38.6311 17.7306L42.8108 18.3885C42.7101 18.6167 42.5579 18.8449 42.3812 19.0463C40.8865 21.1496 38.1768 22.416 34.5543 22.416C29.2088 22.416 25.6131 19.7556 25.6131 15.728L25.6108 15.7303ZM37.3333 14.211C37.9195 14.211 38.2216 13.5151 37.8278 13.0833C37.1632 12.3538 36.0266 11.9063 34.5028 11.9063C32.9791 11.9063 31.7976 12.3337 31.0682 13.09C30.6632 13.5084 30.9832 14.2132 31.5672 14.2132H37.3355L37.3333 14.211Z"
        fill="#F2496B"></path>
    <path d="M44.2017 4.20752H48.811V21.9378H44.2017V4.20752Z" fill="#F2496B"></path>
    <path d="M51.0391 4.20752H55.6484V21.9378H51.0391V4.20752Z" fill="#F2496B"></path>
    <path
        d="M57.8765 4.20752H62.4858V10.0542C62.4858 10.627 63.157 10.9358 63.5934 10.5621C64.701 9.61341 66.1755 9.09654 68.008 9.09654C71.6306 9.09654 73.8592 11.173 73.8592 14.8716V21.9378H69.2991V15.5809C69.2991 13.4776 68.1087 12.3387 66.0323 12.3387C63.8037 12.3387 62.4858 13.7059 62.4858 15.9613V21.94H57.8765V4.20752Z"
        fill="#F2496B"></path>
    <path
        d="M75.458 16.5161V9.44999H80.0427V15.7934C80.0427 17.5723 81.4725 19.0289 83.2513 19.049C85.4911 19.0736 86.856 17.702 86.856 15.4265V9.44775H91.4407V21.9354H86.9321V21.7251C86.9321 20.9733 86.0729 20.5728 85.4755 21.027C84.4014 21.8459 83.0186 22.289 81.3338 22.289C77.6866 22.289 75.458 20.2125 75.458 16.5139V16.5161Z"
        fill="#F2496B"></path>
    <path
        d="M97.9569 21.8483V21.9378H93.4482V4.20752H98.0576V10.0855C98.0576 10.6539 98.7199 10.9649 99.1584 10.6002C100.333 9.62236 102.007 9.04507 103.96 9.04507C108.317 9.04507 111.306 11.7816 111.306 15.7577C111.306 19.7338 108.267 22.4188 103.884 22.4188C102.076 22.4188 100.53 21.9355 99.3755 21.1009C98.7848 20.6736 97.9569 21.1166 97.9569 21.846V21.8483ZM102.264 19.3042C104.898 19.3042 106.495 17.937 106.495 15.7577C106.495 13.5783 104.949 12.2358 102.316 12.2358C99.682 12.2358 97.9837 13.6298 97.9837 15.7823C97.9837 17.9348 99.6798 19.3042 102.264 19.3042Z"
        fill="#F2496B"></path>
</svg>